<?xml version="1.0" standalone="no"?>
<!DOCTYPE svg PUBLIC "-//W3C//DTD SVG 20010904//EN"
 "http://www.w3.org/TR/2001/REC-SVG-20010904/DTD/svg10.dtd">
<svg version="1.0" xmlns="http://www.w3.org/2000/svg"
 width="34.000000pt" height="34.000000pt" viewBox="0 0 34.000000 34.000000"
 preserveAspectRatio="xMidYMid meet">

<g transform="translate(0.000000,34.000000) scale(0.100000,-0.100000)"
fill="#000000" stroke="none">
<path d="M150 276 c-13 -6 -32 -27 -43 -47 -18 -31 -19 -40 -9 -60 7 -13 10
-16 7 -6 -4 16 0 17 28 13 30 -4 31 -4 13 9 -19 14 -19 15 -1 35 28 30 58 25
78 -13 18 -33 18 -35 -1 -67 -11 -18 -18 -39 -15 -47 3 -8 0 -19 -8 -25 -10
-7 -7 -8 10 -4 14 3 31 0 38 -6 9 -7 13 -7 13 0 0 6 -4 14 -10 17 -6 4 -5 19
5 40 12 31 12 40 -2 82 -25 77 -59 102 -103 79z"/>
<path d="M180 180 c0 -5 5 -10 10 -10 6 0 10 5 10 10 0 6 -4 10 -10 10 -5 0
-10 -4 -10 -10z"/>
<path d="M185 140 c-3 -5 -1 -10 4 -10 6 0 11 5 11 10 0 6 -2 10 -4 10 -3 0
-8 -4 -11 -10z"/>
<path d="M112 95 c-7 -14 -12 -35 -12 -47 0 -20 1 -19 25 6 13 14 31 26 39 26
8 0 18 4 21 10 3 6 -1 7 -10 4 -9 -4 -24 1 -34 10 -17 15 -18 14 -29 -9z"/>
</g>
</svg>
